<?xml version="1.0" encoding="UTF-8"?>
<!DOCTYPE svg PUBLIC "-//W3C//DTD SVG 1.1//EN" "http://www.w3.org/Graphics/SVG/1.1/DTD/svg11.dtd">
<svg xmlns="http://www.w3.org/2000/svg" version="1.1" width="520px" height="83px" style="shape-rendering:geometricPrecision; text-rendering:geometricPrecision; image-rendering:optimizeQuality; fill-rule:evenodd; clip-rule:evenodd" xmlns:xlink="http://www.w3.org/1999/xlink">
<g><path style="opacity:1" fill="#161616" d="M 63.5,13.5 C 63.427,15.0269 64.0937,16.0269 65.5,16.5C 67.4233,18.2014 67.7567,20.2014 66.5,22.5C 63.1667,24.5 59.8333,26.5 56.5,28.5C 54.1223,26.1215 52.1223,23.4549 50.5,20.5C 50.0269,19.0937 49.0269,18.427 47.5,18.5C 28.0574,14.6053 18.7241,22.6053 19.5,42.5C 19.371,47.962 20.0376,53.2953 21.5,58.5C 21.427,60.0269 22.0937,61.0269 23.5,61.5C 30.9351,67.8205 39.2684,69.1538 48.5,65.5C 51.1667,64.8333 52.8333,63.1667 53.5,60.5C 53.8925,58.7162 54.5592,57.0495 55.5,55.5C 56.391,54.8902 57.391,54.5569 58.5,54.5C 61.5963,55.5467 64.5963,56.88 67.5,58.5C 68.2701,62.3953 67.4368,66.062 65,69.5C 54.45,80.8188 41.6167,84.3188 26.5,80C 11.4308,74.572 3.59743,63.7387 3,47.5C 0.945492,31.9883 5.77883,19.155 17.5,9C 19.4068,7.87803 21.4068,7.04469 23.5,6.5C 26.1522,6.59047 28.4855,5.92381 30.5,4.5C 40.6922,2.32663 50.3588,3.82663 59.5,9C 61.0414,10.3712 62.3747,11.8712 63.5,13.5 Z"/></g>
<g><path style="opacity:1" fill="#f7d158" d="M 265.5,59.5 C 266.167,62.1667 267.833,63.8333 270.5,64.5C 282.688,70.647 292.021,67.9803 298.5,56.5C 299.467,55.1938 300.801,54.5271 302.5,54.5C 306.477,55.4861 309.81,57.4861 312.5,60.5C 307.48,75.1868 297.147,82.1868 281.5,81.5C 260.128,80.2971 248.294,68.9638 246,47.5C 246.327,10.8376 264.16,-2.66237 299.5,7C 304.987,10.113 308.987,14.613 311.5,20.5C 307.949,23.5295 304.116,26.1961 300,28.5C 297.532,26.3577 295.365,23.8577 293.5,21C 277.357,13.3774 267.19,18.2108 263,35.5C 261.914,43.728 262.748,51.728 265.5,59.5 Z"/></g>
<g><path style="opacity:0.482" fill="#fbe9b0" d="M 361.5,6.5 C 354.5,5.16667 347.5,5.16667 340.5,6.5C 343.598,5.17896 347.098,4.51229 351,4.5C 354.902,4.51229 358.402,5.17896 361.5,6.5 Z"/></g>
<g><path style="opacity:0.494" fill="#fbeab4" d="M 459.5,5.5 C 478.993,4.50293 498.66,4.1696 518.5,4.5C 518.818,9.03225 518.485,13.3656 517.5,17.5C 517.5,13.5 517.5,9.5 517.5,5.5C 498.167,5.5 478.833,5.5 459.5,5.5 Z"/></g>
<g><path style="opacity:0.965" fill="#5c5c5c" d="M 30.5,4.5 C 28.4855,5.92381 26.1522,6.59047 23.5,6.5C 25.5145,5.07619 27.8478,4.40953 30.5,4.5 Z"/></g>
<g><path style="opacity:1" fill="#111111" d="M 128.5,37.5 C 128.12,39.698 128.787,41.3646 130.5,42.5C 133.029,49.4214 135.363,56.4214 137.5,63.5C 137.12,65.698 137.787,67.3646 139.5,68.5C 140.899,71.6988 141.899,75.0321 142.5,78.5C 137.266,79.8021 131.933,79.8021 126.5,78.5C 124.637,73.5786 122.971,68.5786 121.5,63.5C 116.845,62.8341 112.012,62.5007 107,62.5C 101.784,62.5063 96.951,63.1729 92.5,64.5C 91.4054,69.7841 89.7387,74.7841 87.5,79.5C 82.3054,79.8205 77.3054,79.4872 72.5,78.5C 80.533,54.0926 88.8663,29.7592 97.5,5.5C 104.167,4.16667 110.833,4.16667 117.5,5.5C 121.569,16.0406 125.236,26.7073 128.5,37.5 Z M 116.5,47.5 C 110.926,49.4533 104.926,50.12 98.5,49.5C 98.5,48.5 98.5,47.5 98.5,46.5C 101.423,38.2321 104.256,29.8988 107,21.5C 110.485,30.1279 113.652,38.7945 116.5,47.5 Z"/></g>
<g><path style="opacity:0.745" fill="#494949" d="M 173.5,5.5 C 167.167,5.5 160.833,5.5 154.5,5.5C 154.5,30.1667 154.5,54.8333 154.5,79.5C 158.5,79.5 162.5,79.5 166.5,79.5C 166.17,62.9915 166.504,46.6581 167.5,30.5C 167.5,47.1667 167.5,63.8333 167.5,80.5C 162.833,80.5 158.167,80.5 153.5,80.5C 153.5,55.1667 153.5,29.8333 153.5,4.5C 160.354,4.17596 167.021,4.50929 173.5,5.5 Z"/></g>
<g><path style="opacity:1" fill="#0b0b0b" d="M 173.5,5.5 C 173.12,7.69798 173.787,9.36465 175.5,10.5C 178.029,17.4214 180.363,24.4214 182.5,31.5C 182.12,33.698 182.787,35.3646 184.5,36.5C 187.04,44.2871 189.873,51.9538 193,59.5C 198.88,41.3598 205.046,23.3598 211.5,5.5C 217.833,5.5 224.167,5.5 230.5,5.5C 230.5,30.1667 230.5,54.8333 230.5,79.5C 226.167,79.5 221.833,79.5 217.5,79.5C 217.83,62.9915 217.496,46.6581 216.5,30.5C 210.402,46.6212 204.568,62.9546 199,79.5C 194.55,80.8001 190.05,80.8001 185.5,79.5C 179.722,62.97 173.722,46.6367 167.5,30.5C 166.504,46.6581 166.17,62.9915 166.5,79.5C 162.5,79.5 158.5,79.5 154.5,79.5C 154.5,54.8333 154.5,30.1667 154.5,5.5C 160.833,5.5 167.167,5.5 173.5,5.5 Z"/></g>
<g><path style="opacity:0.422" fill="#858585" d="M 211.5,5.5 C 217.979,4.50929 224.646,4.17596 231.5,4.5C 231.5,29.8333 231.5,55.1667 231.5,80.5C 226.5,80.5 221.5,80.5 216.5,80.5C 216.5,63.8333 216.5,47.1667 216.5,30.5C 217.496,46.6581 217.83,62.9915 217.5,79.5C 221.833,79.5 226.167,79.5 230.5,79.5C 230.5,54.8333 230.5,30.1667 230.5,5.5C 224.167,5.5 217.833,5.5 211.5,5.5 Z"/></g>
<g><path style="opacity:1" fill="#f7cf51" d="M 361.5,6.5 C 369.897,30.0251 377.897,53.6918 385.5,77.5C 380.944,79.4417 375.944,80.1083 370.5,79.5C 368.261,74.7841 366.595,69.7841 365.5,64.5C 361.049,63.1729 356.216,62.5063 351,62.5C 345.988,62.5007 341.155,62.8341 336.5,63.5C 334.828,68.849 333.161,74.1824 331.5,79.5C 326.5,79.5 321.5,79.5 316.5,79.5C 316.5,78.5 316.5,77.5 316.5,76.5C 323.906,52.9496 331.906,29.6162 340.5,6.5C 347.5,5.16667 354.5,5.16667 361.5,6.5 Z M 359.5,46.5 C 359.5,47.5 359.5,48.5 359.5,49.5C 353.074,50.12 347.074,49.4533 341.5,47.5C 344.658,38.8959 347.824,30.2292 351,21.5C 353.368,30.1061 356.201,38.4394 359.5,46.5 Z"/></g>
<g><path style="opacity:0.41" fill="#fbeab3" d="M 435.5,5.5 C 422.833,5.5 410.167,5.5 397.5,5.5C 397.5,30.1667 397.5,54.8333 397.5,79.5C 402.167,79.5 406.833,79.5 411.5,79.5C 411.5,69.1667 411.5,58.8333 411.5,48.5C 415.702,48.1832 419.702,48.5166 423.5,49.5C 419.833,49.5 416.167,49.5 412.5,49.5C 412.5,59.8333 412.5,70.1667 412.5,80.5C 407.167,80.5 401.833,80.5 396.5,80.5C 396.333,55.1645 396.5,29.8311 397,4.5C 397.333,4.16667 397.667,3.83333 398,3.5C 410.598,4.15775 423.098,4.82441 435.5,5.5 Z"/></g>
<g><path style="opacity:1" fill="#f6ce4d" d="M 435.5,5.5 C 445.873,7.6974 451.207,14.1974 451.5,25C 451.245,34.0033 446.912,40.17 438.5,43.5C 441.706,46.2193 444.206,49.5526 446,53.5C 448.809,61.4271 451.309,69.4271 453.5,77.5C 448.944,79.4417 443.944,80.1083 438.5,79.5C 435.662,70.8279 432.495,62.1612 429,53.5C 427.568,51.5612 425.735,50.2279 423.5,49.5C 419.702,48.5166 415.702,48.1832 411.5,48.5C 411.5,58.8333 411.5,69.1667 411.5,79.5C 406.833,79.5 402.167,79.5 397.5,79.5C 397.5,54.8333 397.5,30.1667 397.5,5.5C 410.167,5.5 422.833,5.5 435.5,5.5 Z M 428.5,17.5 C 435.631,20.9776 437.298,26.3109 433.5,33.5C 431.971,34.7629 430.305,35.7629 428.5,36.5C 423.167,36.5 417.833,36.5 412.5,36.5C 412.5,30.1667 412.5,23.8333 412.5,17.5C 417.833,17.5 423.167,17.5 428.5,17.5 Z"/></g>
<g><path style="opacity:0.999" fill="#f6cd47" d="M 459.5,5.5 C 478.833,5.5 498.167,5.5 517.5,5.5C 517.5,9.5 517.5,13.5 517.5,17.5C 510.167,17.5 502.833,17.5 495.5,17.5C 495.5,38.1667 495.5,58.8333 495.5,79.5C 490.833,79.5 486.167,79.5 481.5,79.5C 481.5,58.8333 481.5,38.1667 481.5,17.5C 474.167,17.5 466.833,17.5 459.5,17.5C 458.595,13.6675 458.595,9.6675 459.5,5.5 Z"/></g>
<g><path style="opacity:0.937" fill="#737373" d="M 173.5,5.5 C 174.537,6.93033 175.204,8.59699 175.5,10.5C 173.787,9.36465 173.12,7.69798 173.5,5.5 Z"/></g>
<g><path style="opacity:0.443" fill="#979797" d="M 63.5,13.5 C 64.9063,13.9731 65.573,14.9731 65.5,16.5C 64.0937,16.0269 63.427,15.0269 63.5,13.5 Z"/></g>
<g><path style="opacity:0.454" fill="#fbe9ae" d="M 428.5,17.5 C 423.167,17.5 417.833,17.5 412.5,17.5C 412.5,23.8333 412.5,30.1667 412.5,36.5C 417.833,36.5 423.167,36.5 428.5,36.5C 423.025,37.4889 417.358,37.8222 411.5,37.5C 411.5,30.5 411.5,23.5 411.5,16.5C 417.358,16.1778 423.025,16.5111 428.5,17.5 Z"/></g>
<g><path style="opacity:0.463" fill="#fceec1" d="M 459.5,17.5 C 466.833,17.5 474.167,17.5 481.5,17.5C 481.5,38.1667 481.5,58.8333 481.5,79.5C 486.167,79.5 490.833,79.5 495.5,79.5C 495.5,58.8333 495.5,38.1667 495.5,17.5C 502.833,17.5 510.167,17.5 517.5,17.5C 510.687,18.4912 503.687,18.8245 496.5,18.5C 496.988,39.6512 496.488,60.6512 495,81.5C 490.276,80.6416 485.609,80.3083 481,80.5C 480.5,59.836 480.333,39.1694 480.5,18.5C 473.313,18.8245 466.313,18.4912 459.5,17.5 Z"/></g>
<g><path style="opacity:0.557" fill="#818181" d="M 47.5,18.5 C 49.0269,18.427 50.0269,19.0937 50.5,20.5C 48.9731,20.573 47.9731,19.9063 47.5,18.5 Z"/></g>
<g><path style="opacity:0.902" fill="#7d7d7d" d="M 182.5,31.5 C 183.537,32.9303 184.204,34.597 184.5,36.5C 182.787,35.3646 182.12,33.698 182.5,31.5 Z"/></g>
<g><path style="opacity:0.925" fill="#777777" d="M 128.5,37.5 C 129.537,38.9303 130.204,40.597 130.5,42.5C 128.787,41.3646 128.12,39.698 128.5,37.5 Z"/></g>
<g><path style="opacity:0.207" fill="#c0c0c0" d="M 98.5,46.5 C 98.5,47.5 98.5,48.5 98.5,49.5C 104.926,50.12 110.926,49.4533 116.5,47.5C 117.404,48.209 117.737,49.209 117.5,50.5C 110.833,50.5 104.167,50.5 97.5,50.5C 97.2322,48.901 97.5655,47.5676 98.5,46.5 Z"/></g>
<g><path style="opacity:0.262" fill="#fcf1cc" d="M 359.5,46.5 C 360.434,47.5676 360.768,48.901 360.5,50.5C 353.833,50.5 347.167,50.5 340.5,50.5C 340.263,49.209 340.596,48.209 341.5,47.5C 347.074,49.4533 353.074,50.12 359.5,49.5C 359.5,48.5 359.5,47.5 359.5,46.5 Z"/></g>
<g><path style="opacity:0.408" fill="#a7a7a7" d="M 58.5,54.5 C 57.391,54.5569 56.391,54.8902 55.5,55.5C 56.0527,53.4482 57.0527,53.1148 58.5,54.5 Z"/></g>
<g><path style="opacity:0.49" fill="#fdf3d4" d="M 302.5,54.5 C 300.801,54.5271 299.467,55.1938 298.5,56.5C 298.575,52.3719 299.909,51.7052 302.5,54.5 Z"/></g>
<g><path style="opacity:0.455" fill="#939393" d="M 21.5,58.5 C 22.9063,58.9731 23.573,59.9731 23.5,61.5C 22.0937,61.0269 21.427,60.0269 21.5,58.5 Z"/></g>
<g><path style="opacity:0.843" fill="#feecbb" d="M 265.5,59.5 C 267.5,60.8333 269.167,62.5 270.5,64.5C 267.833,63.8333 266.167,62.1667 265.5,59.5 Z"/></g>
<g><path style="opacity:0.749" fill="#909090" d="M 53.5,60.5 C 52.8333,63.1667 51.1667,64.8333 48.5,65.5C 49.8333,63.5 51.5,61.8333 53.5,60.5 Z"/></g>
<g><path style="opacity:0.194" fill="#c4c4c4" d="M 121.5,63.5 C 111.75,63.1935 102.084,63.5268 92.5,64.5C 96.951,63.1729 101.784,62.5063 107,62.5C 112.012,62.5007 116.845,62.8341 121.5,63.5 Z"/></g>
<g><path style="opacity:0.222" fill="#fdf1d0" d="M 336.5,63.5 C 341.155,62.8341 345.988,62.5007 351,62.5C 356.216,62.5063 361.049,63.1729 365.5,64.5C 355.916,63.5268 346.25,63.1935 336.5,63.5 Z"/></g>
<g><path style="opacity:0.91" fill="#7b7b7b" d="M 137.5,63.5 C 138.537,64.9303 139.204,66.597 139.5,68.5C 137.787,67.3646 137.12,65.698 137.5,63.5 Z"/></g>
<g><path style="opacity:0.485" fill="#898989" d="M 72.5,78.5 C 77.3054,79.4872 82.3054,79.8205 87.5,79.5C 82.3197,80.8147 76.9864,80.8147 71.5,79.5C 71.6236,78.8933 71.9569,78.56 72.5,78.5 Z"/></g>
<g><path style="opacity:0.486" fill="#8d8d8d" d="M 126.5,78.5 C 131.933,79.8021 137.266,79.8021 142.5,78.5C 143.043,78.56 143.376,78.8933 143.5,79.5C 140.667,79.8333 137.833,80.1667 135,80.5C 131.748,80.4809 128.915,79.8142 126.5,78.5 Z"/></g>
<g><path style="opacity:0.518" fill="#fae7a7" d="M 316.5,76.5 C 316.5,77.5 316.5,78.5 316.5,79.5C 321.5,79.5 326.5,79.5 331.5,79.5C 326.36,80.4881 321.026,80.8214 315.5,80.5C 315.232,78.901 315.566,77.5676 316.5,76.5 Z"/></g>
<g><path style="opacity:0.541" fill="#fbe9ae" d="M 385.5,77.5 C 386.782,78.7082 386.782,80.0416 385.5,81.5C 380.368,80.8792 375.368,80.2125 370.5,79.5C 375.944,80.1083 380.944,79.4417 385.5,77.5 Z"/></g>
<g><path style="opacity:0.549" fill="#fbe9ae" d="M 453.5,77.5 C 455.368,78.7861 455.534,80.1195 454,81.5C 448.733,80.8549 443.567,80.1882 438.5,79.5C 443.944,80.1083 448.944,79.4417 453.5,77.5 Z"/></g>
</svg>
