<?xml version="1.0" encoding="UTF-8"?>
<!DOCTYPE svg PUBLIC "-//W3C//DTD SVG 1.1//EN" "http://www.w3.org/Graphics/SVG/1.1/DTD/svg11.dtd">
<svg xmlns="http://www.w3.org/2000/svg" version="1.1" width="524px" height="85px" style="shape-rendering:geometricPrecision; text-rendering:geometricPrecision; image-rendering:optimizeQuality; fill-rule:evenodd; clip-rule:evenodd" xmlns:xlink="http://www.w3.org/1999/xlink">
<g><path style="opacity:1" fill="#eeeeee" d="M 57.5,55.5 C 58.391,54.8902 59.391,54.5569 60.5,54.5C 63.5889,55.7389 66.5889,57.2389 69.5,59C 68.366,69.8251 62.366,76.8251 51.5,80C 21.8481,84.6846 6.18147,72.0179 4.5,42C 6.66855,12.4966 22.3352,0.163241 51.5,5C 61.0442,6.88419 66.8776,12.3842 69,21.5C 65.3333,23.8333 61.6667,26.1667 58,28.5C 51.228,17.225 41.728,14.3917 29.5,20C 23.2532,26.1106 20.2532,33.6106 20.5,42.5C 20.6211,62.4739 30.2878,70.3072 49.5,66C 53.4976,63.5007 56.1643,60.0007 57.5,55.5 Z"/></g>
<g><path style="opacity:1" fill="#e5bf41" d="M 277.5,3.5 C 290.275,1.74323 301.108,5.4099 310,14.5C 311.039,16.7463 312.206,18.913 313.5,21C 309.668,23.7503 305.668,26.2503 301.5,28.5C 296.352,18.7643 288.352,15.2643 277.5,18C 271.233,19.9337 267.399,24.1004 266,30.5C 264.041,38.8246 264.041,47.1579 266,55.5C 270.932,65.8802 279.099,69.7135 290.5,67C 293.562,65.9392 296.062,64.1059 298,61.5C 299.233,58.5829 300.733,55.9163 302.5,53.5C 306.66,55.4125 310.66,57.5791 314.5,60C 308.102,77.0419 295.768,84.0419 277.5,81C 261.365,78.1979 251.865,68.6979 249,52.5C 247.157,40.5948 248.824,29.2615 254,18.5C 259.868,10.3217 267.701,5.32174 277.5,3.5 Z"/></g>
<g><path style="opacity:0.549" fill="#6d5b1f" d="M 362.5,5.5 C 355.745,5.20656 349.078,5.5399 342.5,6.5C 345.428,5.18028 348.761,4.51362 352.5,4.5C 356.018,4.5016 359.351,4.83493 362.5,5.5 Z"/></g>
<g><path style="opacity:1" fill="#f1f1f1" d="M 144.5,78.5 C 139.266,79.8021 133.933,79.8021 128.5,78.5C 126.637,73.5786 124.971,68.5786 123.5,63.5C 118.845,62.8341 114.012,62.5007 109,62.5C 103.784,62.5063 98.951,63.1729 94.5,64.5C 93.3344,69.8302 91.6677,74.9968 89.5,80C 84.1667,80.6667 78.8333,80.6667 73.5,80C 82.192,55.5916 90.692,31.0916 99,6.5C 102.233,5.21364 105.733,4.54698 109.5,4.5C 112.833,4.83333 116.167,5.16667 119.5,5.5C 128.042,29.7938 136.375,54.1272 144.5,78.5 Z M 118.5,48.5 C 112.355,49.4902 106.022,49.8235 99.5,49.5C 102.756,40.232 105.923,30.8987 109,21.5C 112.657,30.3016 115.823,39.3016 118.5,48.5 Z"/></g>
<g><path style="opacity:0.803" fill="#bababa" d="M 175.5,5.5 C 169.167,5.5 162.833,5.5 156.5,5.5C 156.5,30.1667 156.5,54.8333 156.5,79.5C 160.5,79.5 164.5,79.5 168.5,79.5C 168.17,62.9915 168.504,46.6581 169.5,30.5C 169.5,47.1667 169.5,63.8333 169.5,80.5C 164.833,80.5 160.167,80.5 155.5,80.5C 155.5,55.1667 155.5,29.8333 155.5,4.5C 162.354,4.17596 169.021,4.50929 175.5,5.5 Z"/></g>
<g><path style="opacity:1" fill="#f7f7f7" d="M 175.5,5.5 C 181.706,23.6193 188.206,41.6193 195,59.5C 200.905,41.3692 207.071,23.3692 213.5,5.5C 219.833,5.5 226.167,5.5 232.5,5.5C 232.5,30.1667 232.5,54.8333 232.5,79.5C 228.167,79.5 223.833,79.5 219.5,79.5C 219.833,63.1531 219.499,46.8197 218.5,30.5C 217.893,30.6236 217.56,30.9569 217.5,31.5C 212.106,47.514 206.606,63.514 201,79.5C 198.757,80.1371 196.424,80.4704 194,80.5C 191.375,80.4188 189.041,79.7522 187,78.5C 181.629,62.21 175.796,46.21 169.5,30.5C 168.504,46.6581 168.17,62.9915 168.5,79.5C 164.5,79.5 160.5,79.5 156.5,79.5C 156.5,54.8333 156.5,30.1667 156.5,5.5C 162.833,5.5 169.167,5.5 175.5,5.5 Z"/></g>
<g><path style="opacity:0.426" fill="#7d7d7d" d="M 213.5,5.5 C 219.979,4.50929 226.646,4.17596 233.5,4.5C 233.5,29.8333 233.5,55.1667 233.5,80.5C 228.5,80.5 223.5,80.5 218.5,80.5C 218.83,63.9915 218.496,47.6581 217.5,31.5C 217.56,30.9569 217.893,30.6236 218.5,30.5C 219.499,46.8197 219.833,63.1531 219.5,79.5C 223.833,79.5 228.167,79.5 232.5,79.5C 232.5,54.8333 232.5,30.1667 232.5,5.5C 226.167,5.5 219.833,5.5 213.5,5.5 Z"/></g>
<g><path style="opacity:0.999" fill="#e9c242" d="M 362.5,5.5 C 371.354,29.2316 379.687,53.2316 387.5,77.5C 382.944,79.4417 377.944,80.1083 372.5,79.5C 370.463,74.3834 368.796,69.0501 367.5,63.5C 357.81,63.1682 348.144,63.5016 338.5,64.5C 336.628,69.4496 334.961,74.4496 333.5,79.5C 328.056,80.1083 323.056,79.4417 318.5,77.5C 326.103,53.6918 334.103,30.0251 342.5,6.5C 349.078,5.5399 355.745,5.20656 362.5,5.5 Z M 362.5,49.5 C 355.745,50.1229 349.412,49.4563 343.5,47.5C 346.493,38.8561 349.493,30.1895 352.5,21.5C 356.036,30.7763 359.37,40.1096 362.5,49.5 Z"/></g>
<g><path style="opacity:0.38" fill="#64531c" d="M 434.5,5.5 C 422.833,5.5 411.167,5.5 399.5,5.5C 399.5,30.1667 399.5,54.8333 399.5,79.5C 404.167,79.5 408.833,79.5 413.5,79.5C 413.5,69.1667 413.5,58.8333 413.5,48.5C 417.371,48.185 421.038,48.5184 424.5,49.5C 421.167,49.5 417.833,49.5 414.5,49.5C 414.5,59.8333 414.5,70.1667 414.5,80.5C 409.167,80.5 403.833,80.5 398.5,80.5C 398.5,55.1667 398.5,29.8333 398.5,4.5C 410.678,4.17159 422.678,4.50492 434.5,5.5 Z"/></g>
<g><path style="opacity:1" fill="#efc744" d="M 434.5,5.5 C 449.845,8.16694 455.678,17.1669 452,32.5C 449.637,37.6967 445.803,41.3633 440.5,43.5C 442.856,46.0217 445.023,48.6884 447,51.5C 449.965,59.0308 452.465,66.6975 454.5,74.5C 454.286,76.1439 454.62,77.6439 455.5,79C 450.511,79.4993 445.511,79.6659 440.5,79.5C 437.437,70.4796 434.271,61.4796 431,52.5C 429.266,50.5494 427.099,49.5494 424.5,49.5C 421.038,48.5184 417.371,48.185 413.5,48.5C 413.5,58.8333 413.5,69.1667 413.5,79.5C 408.833,79.5 404.167,79.5 399.5,79.5C 399.5,54.8333 399.5,30.1667 399.5,5.5C 411.167,5.5 422.833,5.5 434.5,5.5 Z M 430.5,17.5 C 435.613,18.5412 437.946,21.7079 437.5,27C 437.871,32.7915 435.204,35.9582 429.5,36.5C 424.5,36.5 419.5,36.5 414.5,36.5C 414.5,30.1667 414.5,23.8333 414.5,17.5C 419.833,17.5 425.167,17.5 430.5,17.5 Z"/></g>
<g><path style="opacity:1" fill="#efc744" d="M 498.5,17.5 C 497.503,37.9933 497.169,58.6599 497.5,79.5C 492.833,79.5 488.167,79.5 483.5,79.5C 483.831,58.6599 483.497,37.9933 482.5,17.5C 475.5,17.5 468.5,17.5 461.5,17.5C 461.5,13.1667 461.5,8.83333 461.5,4.5C 480.836,4.33338 500.17,4.50005 519.5,5C 520.291,8.79858 520.624,12.9652 520.5,17.5C 513.167,17.5 505.833,17.5 498.5,17.5 Z"/></g>
<g><path style="opacity:0.468" fill="#68571d" d="M 430.5,17.5 C 425.167,17.5 419.833,17.5 414.5,17.5C 414.5,23.8333 414.5,30.1667 414.5,36.5C 419.5,36.5 424.5,36.5 429.5,36.5C 424.36,37.4881 419.026,37.8214 413.5,37.5C 413.5,30.5 413.5,23.5 413.5,16.5C 419.358,16.1778 425.025,16.5111 430.5,17.5 Z"/></g>
<g><path style="opacity:0.48" fill="#67551d" d="M 482.5,17.5 C 483.497,37.9933 483.831,58.6599 483.5,79.5C 488.167,79.5 492.833,79.5 497.5,79.5C 497.169,58.6599 497.503,37.9933 498.5,17.5C 498.5,38.5 498.5,59.5 498.5,80.5C 493.167,80.5 487.833,80.5 482.5,80.5C 482.5,59.5 482.5,38.5 482.5,17.5 Z"/></g>
<g><path style="opacity:0.235" fill="#444444" d="M 118.5,48.5 C 119.043,48.56 119.376,48.8933 119.5,49.5C 112.678,50.8181 106.011,50.8181 99.5,49.5C 106.022,49.8235 112.355,49.4902 118.5,48.5 Z"/></g>
<g><path style="opacity:0.241" fill="#423612" d="M 343.5,47.5 C 349.412,49.4563 355.745,50.1229 362.5,49.5C 356.021,50.4907 349.354,50.824 342.5,50.5C 342.263,49.209 342.596,48.209 343.5,47.5 Z"/></g>
<g><path style="opacity:0.412" fill="#5a5a5a" d="M 60.5,54.5 C 59.391,54.5569 58.391,54.8902 57.5,55.5C 58.0527,53.4482 59.0527,53.1148 60.5,54.5 Z"/></g>
<g><path style="opacity:0.214" fill="#414141" d="M 123.5,63.5 C 113.75,63.1935 104.084,63.5268 94.5,64.5C 98.951,63.1729 103.784,62.5063 109,62.5C 114.012,62.5007 118.845,62.8341 123.5,63.5 Z"/></g>
<g><path style="opacity:0.476" fill="#6f6f6f" d="M 128.5,78.5 C 133.933,79.8021 139.266,79.8021 144.5,78.5C 145.043,78.56 145.376,78.8933 145.5,79.5C 142.667,79.8333 139.833,80.1667 137,80.5C 133.748,80.4809 130.915,79.8142 128.5,78.5 Z"/></g>
<g><path style="opacity:0.546" fill="#766222" d="M 318.5,77.5 C 323.056,79.4417 328.056,80.1083 333.5,79.5C 328.36,80.4881 323.026,80.8214 317.5,80.5C 317.263,79.209 317.596,78.209 318.5,77.5 Z"/></g>
<g><path style="opacity:0.557" fill="#746121" d="M 387.5,77.5 C 388.404,78.209 388.737,79.209 388.5,80.5C 382.974,80.8214 377.64,80.4881 372.5,79.5C 377.944,80.1083 382.944,79.4417 387.5,77.5 Z"/></g>
<g><path style="opacity:0.552" fill="#796422" d="M 454.5,74.5 C 455.738,76.2143 456.405,78.2143 456.5,80.5C 450.974,80.8214 445.64,80.4881 440.5,79.5C 445.511,79.6659 450.511,79.4993 455.5,79C 454.62,77.6439 454.286,76.1439 454.5,74.5 Z"/></g>
</svg>
